<?xml version="1.0" encoding="UTF-8" standalone="no"?>
<!-- Generator: Adobe Illustrator 22.0.1, SVG Export Plug-In . SVG Version: 6.00 Build 0)  -->

<svg
   viewBox="0 0 39.333345 35.333349"
   width="118.00001"
   height="106.00001"
   version="1.1"
   id="svg9"
   sodipodi:docname="MacOS.svg"
   xmlns:inkscape="http://www.inkscape.org/namespaces/inkscape"
   xmlns:sodipodi="http://sodipodi.sourceforge.net/DTD/sodipodi-0.dtd"
   xmlns:xlink="http://www.w3.org/1999/xlink"
   xmlns="http://www.w3.org/2000/svg"
   xmlns:svg="http://www.w3.org/2000/svg">
  <defs
     id="defs9" />
  <sodipodi:namedview
     id="namedview9"
     pagecolor="#ffffff"
     bordercolor="#000000"
     borderopacity="0.25"
     inkscape:showpageshadow="2"
     inkscape:pageopacity="0.0"
     inkscape:pagecheckerboard="0"
     inkscape:deskcolor="#d1d1d1"
     showguides="true" />
  <g
     id="g9"
     transform="translate(-4.8333276,-5.8333282)">
    <defs
       id="defs1">
      <rect
         id="SVGID_1_"
         x="5"
         y="6"
         width="39"
         height="35" />
    </defs>
    <clipPath
       id="SVGID_2_">
      <use
         xlink:href="#SVGID_1_"
         style="overflow:visible"
         id="use1" />
    </clipPath>
    <g
       clip-path="url(#SVGID_2_)"
       id="g1">
      <path
         style="fill:#e1e1e1"
         d="M 40.056,40.98 H 8.944 C 6.766,40.98 5,39.214 5,37.036 V 9.964 C 5,7.786 6.766,6.02 8.944,6.02 H 40.057 C 42.234,6.02 44,7.786 44,9.964 v 27.073 c 0,2.177 -1.766,3.943 -3.944,3.943 z"
         id="path1" />
    </g>
    <g
       clip-path="url(#SVGID_2_)"
       id="g2">
      <path
         style="fill:#e1e1e1"
         d="M 38.992,6.04 H 26.32 c -0.036,0 -0.069,0.023 -0.081,0.056 -1.01,2.713 -1.813,5.523 -2.399,8.354 -0.554,2.78 -0.903,5.62 -1.026,8.46 -0.002,0.049 0.037,0.09 0.087,0.09 h 3.819 c 0.4,0 0.79,0.17 1.06,0.47 0.27,0.3 0.4,0.7 0.36,1.1 -0.277,2.908 -0.28,5.855 0.02,8.764 0.005,0.051 0.052,0.088 0.102,0.078 2.307,-0.44 5.265,-1.464 8.028,-3.783 0.43,-0.35 1.06,-0.29 1.41,0.13 0.36,0.42 0.3,1.05 -0.12,1.41 -3.138,2.623 -6.501,3.757 -9.08,4.235 -0.045,0.008 -0.074,0.051 -0.067,0.096 0.276,1.831 0.676,3.652 1.18,5.435 0.01,0.039 0.044,0.065 0.083,0.065 h 9.222 C 41.172,41 43,39.172 43,36.917 V 10.048 C 43,7.834 41.206,6.04 38.992,6.04 Z M 34.15,17.95 c 0,0.55 -0.45,1 -1,1 -0.55,0 -1,-0.45 -1,-1 V 14.7 c 0,-0.55 0.45,-1 1,-1 0.55,0 1,0.45 1,1 z"
         id="path2" />
    </g>
    <g
       clip-path="url(#SVGID_2_)"
       id="g3">
      <path
         style="fill:#00b7f9"
         d="M 32.15,17.95 V 14.7 c 0,-0.55 0.45,-1 1,-1 0.55,0 1,0.45 1,1 v 3.25 c 0,0.55 -0.45,1 -1,1 -0.55,0 -1,-0.45 -1,-1 z"
         id="path3" />
    </g>
    <g
       clip-path="url(#SVGID_2_)"
       id="g4">
      <path
         style="fill:#00b7f9"
         d="m 37.58,31.17 c -3.17,2.65 -6.57,3.78 -9.16,4.25 0.28,1.88 0.69,3.75 1.21,5.58 H 9.003 C 6.792,41 5,39.208 5,36.997 V 10.053 C 5,7.837 6.797,6.04 9.013,6.04 H 26.26 c -1.02,2.73 -1.83,5.56 -2.42,8.41 -0.56,2.81 -0.91,5.68 -1.03,8.55 h 3.91 c 0.4,0 0.79,0.17 1.06,0.47 0.27,0.3 0.4,0.7 0.36,1.1 -0.28,2.94 -0.28,5.92 0.03,8.86 2.32,-0.43 5.32,-1.45 8.12,-3.8 0.43,-0.35 1.06,-0.29 1.41,0.13 0.36,0.42 0.3,1.05 -0.12,1.41 z"
         id="path4" />
    </g>
    <g
       clip-path="url(#SVGID_2_)"
       id="g5">
      <path
         style="fill:#00a0d1"
         d="M 29.63,41 C 29.11,39.17 28.7,37.3 28.42,35.42 28.33,34.83 28.25,34.23 28.19,33.64 28.18,33.57 28.18,33.5 28.17,33.43 27.86,30.49 27.86,27.51 28.14,24.57 28.18,24.17 28.05,23.77 27.78,23.47 27.51,23.17 27.12,23 26.72,23 h -3.91 c 0.12,-2.87 0.47,-5.74 1.03,-8.55 0.59,-2.85 1.4,-5.68 2.42,-8.41 0.08,-0.21 0.16,-0.41 0.24,-0.62 L 24.64,4.69 c -0.17,0.45 -0.34,0.9 -0.5,1.35 -0.95,2.61 -1.71,5.3 -2.26,8.02 -0.63,3.11 -0.99,6.29 -1.09,9.47 -0.01,0.39 0.13,0.76 0.41,1.04 0.26,0.27 0.64,0.43 1.03,0.43 h 3.86 c -0.24,2.89 -0.21,5.81 0.09,8.69 0.01,0.05 0.01,0.11 0.02,0.16 0.07,0.61 0.14,1.22 0.24,1.82 0.26,1.8 0.64,3.58 1.11,5.33 0.26,0.95 0.54,1.88 0.86,2.81 l 1.9,-0.65 C 30.06,42.45 29.84,41.72 29.63,41 Z"
         id="path5" />
    </g>
    <g
       clip-path="url(#SVGID_2_)"
       id="g6">
      <path
         style="fill:#37474f"
         d="m 37.58,31.17 c -3.17,2.65 -6.57,3.78 -9.16,4.25 -0.73,0.13 -1.4,0.21 -1.98,0.25 -0.56,0.05 -1.04,0.06 -1.41,0.06 -6.41,0 -10.91,-3.19 -12.55,-4.56 -0.43,-0.36 -0.48,-0.99 -0.13,-1.41 0.36,-0.42 0.99,-0.48 1.41,-0.13 1.47,1.24 5.51,4.1 11.27,4.1 0.31,0 0.7,-0.01 1.15,-0.04 0.57,-0.04 1.24,-0.12 1.99,-0.26 2.32,-0.43 5.32,-1.45 8.12,-3.8 0.43,-0.35 1.06,-0.29 1.41,0.13 0.36,0.42 0.3,1.05 -0.12,1.41 z"
         id="path6" />
    </g>
    <g
       clip-path="url(#SVGID_2_)"
       id="g7">
      <path
         style="fill:#37474f"
         d="m 15.826,18.95 c -0.553,0 -1,-0.448 -1,-1 v -3.248 c 0,-0.552 0.447,-1 1,-1 0.553,0 1,0.448 1,1 v 3.248 c 0,0.552 -0.447,1 -1,1 z"
         id="path7" />
    </g>
    <g
       clip-path="url(#SVGID_2_)"
       id="g8">
      <path
         style="fill:#37474f"
         d="m 34.15,14.7 v 3.25 c 0,0.55 -0.45,1 -1,1 -0.55,0 -1,-0.45 -1,-1 V 14.7 c 0,-0.55 0.45,-1 1,-1 0.55,0 1,0.45 1,1 z"
         id="path8" />
    </g>
  </g>
</svg>
