<?xml version="1.0" encoding="UTF-8" standalone="no"?>
<!-- Uploaded to: SVG Repo, www.svgrepo.com, Generator: SVG Repo Mixer Tools -->

<svg
   fill="#000000"
   width="800"
   height="800"
   viewBox="0 0 24 24"
   role="img"
   version="1.1"
   id="svg1"
   sodipodi:docname="Prettier.svg"
   xmlns:inkscape="http://www.inkscape.org/namespaces/inkscape"
   xmlns:sodipodi="http://sodipodi.sourceforge.net/DTD/sodipodi-0.dtd"
   xmlns="http://www.w3.org/2000/svg"
   xmlns:svg="http://www.w3.org/2000/svg">
  <defs
     id="defs1" />
  <sodipodi:namedview
     id="namedview1"
     pagecolor="#ffffff"
     bordercolor="#000000"
     borderopacity="0.25"
     inkscape:showpageshadow="2"
     inkscape:pageopacity="0.0"
     inkscape:pagecheckerboard="0"
     inkscape:deskcolor="#d1d1d1"
     showgrid="false" />
  <title
     id="title1">Prettier icon</title>
  <path
     d="M 8.571,23.429 A 0.571,0.571 0 0 1 8,24 H 2.286 a 0.5715,0.5715 0 0 1 0,-1.143 H 8 c 0.316,0 0.571,0.256 0.571,0.572 z M 8,20.57 H 6.857 a 0.5715,0.5715 0 0 0 0,1.143 H 8 A 0.5715,0.5715 0 0 0 8,20.57 Z M 2.286,21.713 H 4.57 a 0.5715,0.5715 0 0 0 0,-1.143 H 2.286 a 0.5715,0.5715 0 0 0 0,1.143 z M 8,18.286 H 2.286 a 0.5715,0.5715 0 0 0 0,1.143 H 8 A 0.5715,0.5715 0 0 0 8,18.286 Z M 16,16 H 5.714 a 0.5715,0.5715 0 0 0 0,1.143 H 16 A 0.5715,0.5715 0 0 0 16,16 Z M 2.286,17.143 H 3.429 A 0.5715,0.5715 0 0 0 3.429,16 H 2.286 a 0.5715,0.5715 0 0 0 0,1.143 z M 19.429,13.714 H 16 a 0.5715,0.5715 0 0 0 0,1.143 h 3.429 a 0.5715,0.5715 0 0 0 0,-1.143 z M 9.143,14.857 h 4.571 a 0.5715,0.5715 0 0 0 0,-1.143 H 9.143 a 0.5715,0.5715 0 0 0 0,1.143 z m -6.857,0 h 4.571 a 0.5715,0.5715 0 0 0 0,-1.143 H 2.286 a 0.5715,0.5715 0 0 0 0,1.143 z M 20.57,11.43 h -9.14 a 0.571,0.571 0 0 0 0,1.142 h 9.142 a 0.571,0.571 0 0 0 0,-1.142 z M 9.714,12 A 0.571,0.571 0 0 0 9.143,11.429 H 5.714 a 0.571,0.571 0 0 0 0,1.142 H 9.143 A 0.571,0.571 0 0 0 9.714,12 Z m -7.428,0.571 h 1.143 a 0.571,0.571 0 0 0 0,-1.142 H 2.286 a 0.571,0.571 0 0 0 0,1.142 z M 21.714,9.143 H 16 a 0.5715,0.5715 0 0 0 0,1.143 h 5.714 a 0.5715,0.5715 0 0 0 0,-1.143 z M 2.286,10.286 H 8 A 0.5715,0.5715 0 0 0 8,9.143 H 2.286 a 0.5715,0.5715 0 0 0 0,1.143 z M 15.429,7.429 C 15.429,7.744 15.684,8 16,8 h 5.714 a 0.5715,0.5715 0 0 0 0,-1.143 H 16 A 0.571,0.571 0 0 0 15.429,7.429 Z M 6.857,6.857 A 0.5715,0.5715 0 0 0 6.857,8 H 8 A 0.5715,0.5715 0 0 0 8,6.857 Z M 2.286,8 H 4.57 a 0.5715,0.5715 0 0 0 0,-1.143 H 2.286 A 0.5715,0.5715 0 0 0 2.286,8 Z M 18.857,5.143 c 0,0.315 0.256,0.571 0.572,0.571 h 1.142 a 0.5715,0.5715 0 0 0 0,-1.143 H 19.43 a 0.571,0.571 0 0 0 -0.572,0.572 z m -1.143,0 A 0.571,0.571 0 0 0 17.143,4.571 H 12.57 a 0.5715,0.5715 0 0 0 0,1.143 h 4.572 A 0.571,0.571 0 0 0 17.713,5.143 Z M 2.286,5.714 h 8 a 0.5715,0.5715 0 0 0 0,-1.143 h -8 a 0.5715,0.5715 0 0 0 0,1.143 z M 7.429,2.857 c 0,0.316 0.255,0.572 0.571,0.572 h 11.429 a 0.5715,0.5715 0 0 0 0,-1.143 H 8 A 0.571,0.571 0 0 0 7.429,2.857 Z M 2.286,3.429 h 3.428 a 0.5715,0.5715 0 0 0 0,-1.143 H 2.286 a 0.5715,0.5715 0 0 0 0,1.143 z m 0,-2.286 H 16 A 0.5715,0.5715 0 0 0 16,0 H 2.286 a 0.5715,0.5715 0 0 0 0,1.143 z"
     id="path1" />
</svg>
