<?xml version="1.0" encoding="UTF-8" standalone="no"?>
<!-- Generator: Adobe Illustrator 24.0.2, SVG Export Plug-In . SVG Version: 6.00 Build 0)  -->

<svg
   version="1.1"
   id="Слой_1"
   x="0px"
   y="0px"
   viewBox="0 0 36 36"
   xml:space="preserve"
   sodipodi:docname="TypeScript.svg"
   width="36"
   height="36"
   inkscape:version="1.3.2 (091e20e, 2023-11-25)"
   xmlns:inkscape="http://www.inkscape.org/namespaces/inkscape"
   xmlns:sodipodi="http://sodipodi.sourceforge.net/DTD/sodipodi-0.dtd"
   xmlns="http://www.w3.org/2000/svg"
   xmlns:svg="http://www.w3.org/2000/svg"><defs
   id="defs1" /><sodipodi:namedview
   id="namedview1"
   pagecolor="#ffffff"
   bordercolor="#000000"
   borderopacity="0.25"
   inkscape:showpageshadow="2"
   inkscape:pageopacity="0.0"
   inkscape:pagecheckerboard="0"
   inkscape:deskcolor="#d1d1d1"
   inkscape:zoom="4.9166667"
   inkscape:cx="24"
   inkscape:cy="24"
   inkscape:window-width="1760"
   inkscape:window-height="1015"
   inkscape:window-x="0"
   inkscape:window-y="44"
   inkscape:window-maximized="0"
   inkscape:current-layer="Слой_1" />
<rect
   x="0"
   y="0"
   style="fill:#1976d2"
   width="36"
   height="36"
   id="rect1" />
<g
   id="g1"
   transform="translate(-6,-6)">
	<polygon
   style="fill:#ffffff"
   points="18.984,25.264 18.984,40 22.753,40 22.753,25.264 27.49,25.264 27.49,22 14.227,22 14.227,25.264 "
   id="polygon1" />
	<path
   style="fill:#ffffff"
   d="m 39.194,26.084 c 0,0 -1.787,-1.192 -3.807,-1.192 -2.02,0 -2.747,0.96 -2.747,1.986 0,2.648 7.381,2.383 7.381,7.712 0,8.209 -11.254,4.568 -11.254,4.568 V 35.22 c 0,0 2.152,1.622 4.733,1.622 2.581,0 2.483,-1.688 2.483,-1.92 0,-2.449 -7.315,-2.449 -7.315,-7.878 0,-7.381 10.658,-4.469 10.658,-4.469 z"
   id="path1" />
</g>
</svg>
