<?xml version="1.0" encoding="UTF-8" standalone="no"?>
<!-- Generator: Adobe Illustrator 25.2.3, SVG Export Plug-In . SVG Version: 6.00 Build 0)  -->

<svg
   version="1.1"
   id="Layer_1"
   x="0px"
   y="0px"
   viewBox="0 0 40 40"
   xml:space="preserve"
   width="40"
   height="40"
   xmlns="http://www.w3.org/2000/svg"
   xmlns:svg="http://www.w3.org/2000/svg"><defs
   id="defs10" />
<polygon
   style="fill:#eceff1"
   points="41,34 41,14 24,4 7,14 7,34 24,44 "
   id="polygon1"
   transform="translate(-4,-3.75)" />
<g
   id="g4"
   transform="translate(-4,-3.75)">
	<polygon
   style="fill:#0277bd"
   points="23.5,24.5 23.5,33.5 15,29 15,19.5 "
   id="polygon2" />
	<polygon
   style="fill:#0277bd"
   points="24.5,24.5 24.5,33.5 33,29 33,19.5 "
   id="polygon3" />
	<polygon
   style="fill:#0277bd"
   points="24,23.5 15.5,18.5 24,14 32.5,18.5 "
   id="polygon4" />
</g>
<g
   id="g10"
   transform="translate(-4,-3.75)">
	<polygon
   style="fill:#81d4fa"
   points="23.5,7 23.5,13 14.5,18 9.5,15 "
   id="polygon5" />
	<polygon
   style="fill:#81d4fa"
   points="23.5,41 23.5,35 14.5,30 9.5,33 "
   id="polygon6" />
	<polygon
   style="fill:#81d4fa"
   points="14,19 9,16 9,32 14,29 "
   id="polygon7" />
	<polygon
   style="fill:#81d4fa"
   points="24.5,7 24.5,13 33.5,18 38.5,15 "
   id="polygon8" />
	<polygon
   style="fill:#81d4fa"
   points="24.5,41 24.5,35 33.5,30 38.5,33 "
   id="polygon9" />
	<polygon
   style="fill:#81d4fa"
   points="34,19 39,16 39,32 34,29 "
   id="polygon10" />
</g>
</svg>
